#!OML:ASF H:\GeneralSubjects\Female5\Project 1\Capture day 1\Session 1\Female5.ASF
:FULLY-SPECIFIED
:DEGREES
256
root -32.3674 15.703 3.26247 -172.295 -4.80984 -175.503
lowerback 4.0855 1.65442 0.848321
upperback -10.8134 1.67499 5.05852
thorax -14.3141 0.558927 5.01426
lowerneck -14.8489 7.66601 2.13414
upperneck 33.4918 8.60017 0.197945
head 13.9579 3.17631 0.890863
rclavicle -1.19271e-015 1.03368e-014
rhumerus -53.5205 29.209 -91.4881
rradius 35.1154
rwrist -26.2848
rhand -19.6859 -26.7576
rfingers 7.12502
rthumb 6.64308 -56.6334
lclavicle -1.19271e-015 1.03368e-014
lhumerus -48.2157 2.95641 86.9179
lradius 33.5022
lwrist -9.44108
lhand -22.101 32.8196
lfingers 7.12502
lthumb 4.31123 62.7557
rfemur 0 0 0
rtibia 0
rfoot 0 0
rtoes 0
lfemur -28.0382 -12.8855 -5.40506
ltibia 24.848
lfoot -21.9836 20.6478
ltoes -61.5521
257
root -32.3706 15.7027 3.25014 -172.246 -4.76351 -175.579
lowerback 4.02688 1.67069 0.851595
upperback -10.8087 1.69307 5.01946
thorax -14.2698 0.564341 4.96376
lowerneck -14.4911 8.45085 3.2384
upperneck 33.5454 9.63538 -0.343495
head 14.0298 3.6882 0.654441
rclavicle 2.20651e-014 -7.55382e-014
rhumerus -53.6316 29.265 -91.6747
rradius 35.0716
rwrist -26.0893
rhand -19.3768 -26.7971
rfingers 7.12502
rthumb 6.94146 -56.6633
lclavicle 2.20651e-014 -7.55382e-014
lhumerus -48.1191 2.88114 86.9763
lradius 33.548
lwrist -9.15031
lhand -22.1994 32.6859
lfingers 7.12502
lthumb 4.21618 62.624
rfemur 0 0 0
rtibia 0
rfoot 0 0
rtoes 0
lfemur -27.971 -12.6967 -5.55602
ltibia 24.7185
lfoot -21.343 20.9982
ltoes -61.9522
258
root -32.3732 15.7027 3.23926 -172.21 -4.69706 -175.649
lowerback 3.9683 1.68872 0.819459
upperback -10.7702 1.71563 5.00124
thorax -14.1879 0.578674 4.95382
lowerneck -14.2995 9.21083 4.30468
upperneck 33.7524 10.6593 -0.925833
head 14.2312 4.17202 0.420286
rclavicle -1.64991e-014 1.03368e-014
rhumerus -53.7823 29.4604 -91.9421
rradius 35.1445
rwrist -26.1708
rhand -19.4448 -26.8612
rfingers 7.12502
rthumb 6.87577 -56.7296
lclavicle -1.64991e-014 1.03368e-014
lhumerus -48.0105 2.806 87.0691
lradius 33.5798
lwrist -8.60409
lhand -22.8825 32.8812
lfingers 7.12502
lthumb 3.55657 62.8312
rfemur 0 0 0
rtibia 0
rfoot 0 0
rtoes 0
lfemur -27.8871 -12.5595 -5.65394
ltibia 24.6253
lfoot -21.193 20.7045
ltoes -61.4881
259
root -32.3754 15.7047 3.23054 -172.175 -4.62441 -175.689
lowerback 3.85694 1.722 0.728864
upperback -10.7071 1.7542 5.04562
thorax -14.0506 0.609821 5.04349
lowerneck -13.8306 9.96385 5.2795
upperneck 33.718 11.7266 -1.51227
head 14.2802 4.67946 0.195317
rclavicle -2.00773e-014 1.82882e-014
rhumerus -53.8764 29.7495 -92.11
rradius 35.082
rwrist -26.3588
rhand -19.5096 -26.323
rfingers 7.12502
rthumb 6.81328 -56.1934
lclavicle -2.00773e-014 1.82882e-014
lhumerus -47.8599 3.00484 87.0429
lradius 33.5963
lwrist -8.64123
lhand -22.8507 32.9764
lfingers 7.12502
lthumb 3.58725 62.926
rfemur 0 0 0
rtibia 0
rfoot 0 0
rtoes 0
lfemur -27.8779 -12.4711 -5.69751
ltibia 24.6707
lfoot -21.0907 20.4885
ltoes -61.4033
260
root -32.3783 15.7072 3.22156 -172.16 -4.56109 -175.717
lowerback 3.70449 1.76382 0.69248
upperback -10.6141 1.811 5.06428
thorax -13.8491 0.642845 5.06779
lowerneck -13.2712 10.6668 6.14604
upperneck 33.569 12.7279 -1.9811
head 14.2557 5.1722 0.020906
rclavicle 1.5704e-014 -3.81667e-014
rhumerus -53.7126 29.7173 -92.0216
rradius 34.867
rwrist -26.1146
rhand -19.1742 -25.7186
rfingers 7.12502
rthumb 7.13698 -55.5783
lclavicle 1.5704e-014 -3.81667e-014
lhumerus -47.5999 3.37698 86.892
lradius 33.5553
lwrist -9.30111
lhand -21.9423 32.8966
lfingers 7.12502
lthumb 4.46453 62.8296
rfemur 0 0 0
rtibia 0
rfoot 0 0
rtoes 0
lfemur -27.8493 -12.4189 -5.74831
ltibia 24.7226
lfoot -21.0374 20.5262
ltoes -61.5069
